<svg xmlns="http://www.w3.org/2000/svg" width="32" height="32" viewBox="0 0 32 32">
    <g fill="none" fill-rule="evenodd" transform="translate(4 1)">
        <path fill="#29B6F6"
              d="M2.999995,-3.5e-05 C1.349944,-3.5e-05 0.014929,1.349962 0.014929,2.999962 L-8.29999999e-05,27.000004 C-8.29999999e-05,28.649938 1.334932,29.999968 2.984983,29.999968 L20.999896,29.999968 C22.649947,29.999968 23.999974,28.649938 23.999974,27.000004 L23.999974,6.999958 L16.999981,-3.5e-05 L2.999995,-3.5e-05 Z"/>
        <path fill="#81D4FA"
              d="M18.99998,6.99997 C17.89539,6.99997 16.99998,6.10453 16.99998,4.99997 L16.99998,-5e-05 L23.99998,6.99997 L18.99998,6.99997 Z"/>
        <polygon fill="#000" fill-opacity=".15" points="18 7 24 7 24 14"/>
        <path fill="#FFF"
              d="M16.023472,16.43982 C16.043568,18.556694 17.979056,19.260834 18.000928,19.27049 C17.98352,19.318872 17.690832,20.274459 16.979968,21.261309 C16.365936,22.114233 15.729328,22.962584 14.725216,22.979907 C13.737552,22.997842 13.420672,22.424347 12.291904,22.424347 C11.163136,22.424347 10.81088,22.962873 9.877136,22.997842 C8.908368,23.032828 8.169968,22.076952 7.5508,21.227496 C6.284256,19.489552 5.31696,16.316077 6.616768,14.174723 C7.260864,13.110744 8.414416,12.437085 9.666,12.419422 C10.617328,12.40351 11.516672,13.02911 12.097504,13.02911 C12.679504,13.02911 13.772048,12.276622 14.91936,12.387292 C15.399568,12.40606 16.748752,12.571096 17.614784,13.773591 C17.545856,13.816584 16.004928,14.666907 16.023472,16.43982 Z M14.167728,11.237106 C13.652224,11.828264 12.808688,12.288879 11.981536,12.228002 C11.869872,11.42346 12.286848,10.587315 12.763712,10.062202 C13.296048,9.470449 14.193472,9.030914 14.93488,9.002456 C15.029552,9.821805 14.68152,10.644826 14.167728,11.237106 Z"/>
    </g>
</svg>
