<svg xmlns="http://www.w3.org/2000/svg" width="32" height="32" viewBox="0 0 32 32">
    <g fill="none" fill-rule="evenodd" transform="translate(4 1)">
        <path fill="#03A9F4"
              d="M2.999941,-3.5e-05 C1.34989,-3.5e-05 0.014875,1.349962 0.014875,2.999962 L-2.9e-05,27.000004 C-2.9e-05,28.649938 1.334986,29.999968 2.984929,29.999968 L20.99995,29.999968 C22.649974,29.999968 23.99992,28.649938 23.99992,27.000004 L23.99992,6.999958 L16.999927,-3.5e-05 L2.999941,-3.5e-05 Z"/>
        <path fill="#81D4FA"
              d="M18.99993,6.99997 C17.89534,6.99997 16.99993,6.10453 16.99993,4.99997 L16.99993,-5e-05 L23.99993,6.99997 L18.99993,6.99997 Z"/>
        <path fill="#FFF"
              d="M5.999899,9.999999 L17.999976,9.999999 C19.104465,9.999999 19.999878,10.895423 19.999878,11.999981 L19.999878,21.999976 C19.999878,23.104534 19.104465,23.999975 17.999976,23.999975 L5.999899,23.999975 C4.89541,23.999975 3.999902,23.104534 3.999902,21.999976 L3.999902,11.999981 C3.999902,10.895423 4.89541,9.999999 5.999899,9.999999 Z M4.999986,13.999997 L4.999986,21.999993 C4.999986,22.552289 5.447721,23.000001 5.999975,23.000001 L17.999976,23.000001 C18.552268,23.000001 18.999984,22.552289 18.999984,21.999993 L18.999984,13.999997 L4.999986,13.999997 Z M6.999964,10.999956 C6.447615,10.999956 5.999899,11.447702 5.999899,11.999981 C5.999899,12.552277 6.447615,12.999955 6.999964,12.999955 C7.552199,12.999955 7.999915,12.552277 7.999915,11.999981 C7.999915,11.447702 7.552199,10.999956 6.999964,10.999956 Z M9.999931,10.999956 C9.447677,10.999956 8.999961,11.447702 8.999961,11.999981 C8.999961,12.552277 9.447677,12.999955 9.999931,12.999955 C10.552166,12.999955 10.999977,12.552277 10.999977,11.999981 C10.999977,11.447702 10.552166,10.999956 9.999931,10.999956 Z M12.999917,10.999956 C12.447644,10.999956 11.999947,11.447702 11.999947,11.999981 C11.999947,12.552277 12.447644,12.999955 12.999917,12.999955 C13.552247,12.999955 13.999963,12.552277 13.999963,11.999981 C13.999963,11.447702 13.552247,10.999956 12.999917,10.999956 Z"/>
        <polygon fill="#000" fill-opacity=".15" points="18 7 24 7 24 14"/>
    </g>
</svg>
