<svg xmlns="http://www.w3.org/2000/svg" width="32" height="32" viewBox="0 0 32 32">
    <g fill="none" fill-rule="evenodd" transform="translate(4 1)">
        <path fill="#39C"
              d="M2.999914,-3.5e-05 C1.349971,-3.5e-05 0.014929,1.349962 0.014929,2.999962 L-8.29999999e-05,27.000004 C-8.29999999e-05,28.649938 1.334932,29.999968 2.984983,29.999968 L20.999896,29.999968 C22.649947,29.999968 23.999974,28.649938 23.999974,27.000004 L23.999974,6.999958 L16.999981,-3.5e-05 L2.999914,-3.5e-05 Z"/>
        <polygon fill="#000" fill-opacity=".15" points="18 7 24 7 24 14"/>
        <path fill="#6AC0EB"
              d="M18.99989,6.99997 C17.8954,6.99997 16.99998,6.10453 16.99998,4.99997 L16.99998,-5e-05 L23.99998,6.99997 L18.99989,6.99997 Z"/>
        <path fill="#FFF"
              d="M5.999965,9.999998 L11.999965,9.999998 L11.999965,11.999983 L5.999965,11.999983 L5.999965,9.999998 Z M5.999965,13.999981 L17.999935,13.999981 L17.999935,15.999979 L5.999965,15.999979 L5.999965,13.999981 Z M5.999965,17.999977 L17.999935,17.999977 L17.999935,19.999975 L5.999965,19.999975 L5.999965,17.999977 Z"/>
    </g>
</svg>
