<svg xmlns="http://www.w3.org/2000/svg" width="32" height="32" viewBox="0 0 32 32">
    <g fill="none" fill-rule="evenodd" transform="translate(4 1)">
        <path fill="#ECB33E"
              d="M2.999995,-3.5e-05 C1.349944,-3.5e-05 0.014929,1.349962 0.014929,2.999962 L-8.29999999e-05,27.000004 C-8.29999999e-05,28.649938 1.334932,29.999968 2.984983,29.999968 L20.999896,29.999968 C22.649947,29.999968 23.999974,28.649938 23.999974,27.000004 L23.999974,6.999958 L16.999981,-3.5e-05 L2.999995,-3.5e-05 Z"/>
        <path fill="#FFD888"
              d="M18.99998,6.99997 C17.89539,6.99997 16.99998,6.10453 16.99998,4.99997 L16.99998,-5e-05 L23.99998,6.99997 L18.99998,6.99997 Z"/>
        <polygon fill="#000" fill-opacity=".15" points="18 7 24 7 24 14"/>
        <path fill="#FFF" fill-rule="nonzero"
              d="M3,10 L10,10 C10,8.89543 10.8954,8 12,8 C13.1046,8 14,8.89543 14,10 L21,10 L21,12 L20,12 L20,22 L15.25,22 L17,25 L15,25 L13.25,22 L10.75,22 L9,25 L7,25 L8.75,22 L4,22 L4,12 L3,12 L3,10 Z M6,12.00001 L6,20 L18,20 L18,12.00001 L6,12.00001 Z"/>
        <polygon fill="#FFF" points="10 13 15 16 10 19"/>
    </g>
</svg>
