<svg xmlns="http://www.w3.org/2000/svg" width="32" height="32" viewBox="0 0 32 32">
    <g fill="none" fill-rule="evenodd" transform="translate(4 1)">
        <path fill="#5C6BC0"
              d="M2.999995,-3.5e-05 C1.349944,-3.5e-05 0.014929,1.349962 0.014929,2.999962 L-0.00011,27.000004 C-0.00011,28.649938 1.334905,29.999968 2.984956,29.999968 L20.999977,29.999968 C22.64992,29.999968 23.999974,28.649938 23.999974,27.000004 L23.999974,6.999958 L16.999954,-3.5e-05 L2.999995,-3.5e-05 Z"/>
        <path fill="#9FA8DA"
              d="M18.99997,6.99997 C17.89538,6.99997 16.99996,6.10453 16.99996,4.99997 L16.99996,-5e-05 L23.99997,6.99997 L18.99997,6.99997 Z"/>
        <path fill="#FFF"
              d="M5.998144,11.195739 C6.64552,11.071303 7.517104,10.996657 8.712336,10.996657 C10.007072,10.996657 10.978192,11.270398 11.600736,11.792907 C12.173408,12.265626 12.546928,13.036955 12.546928,13.957589 C12.546928,14.878158 12.248128,15.6495 11.700368,16.172061 C11.003136,16.868731 9.882608,17.217066 8.612672,17.217066 C8.288944,17.217066 7.965312,17.192158 7.741216,17.167289 L7.741216,20.824891 L5.998144,20.824891 L5.998144,11.195739 Z M7.766032,15.724146 C7.990128,15.773936 8.264128,15.798792 8.637616,15.798792 C9.957312,15.798792 10.779008,15.151912 10.779008,14.007314 C10.779008,12.912571 10.032016,12.340285 8.787008,12.340285 C8.288944,12.340285 7.940368,12.390062 7.766032,12.414931 L7.766032,15.724146 Z M13.343808,19.182718 C13.74216,19.431486 14.51408,19.680306 15.161472,19.680306 C15.933408,19.680306 16.281984,19.356892 16.281984,18.908977 C16.281984,18.436258 15.983168,18.187438 15.136624,17.888828 C13.767072,17.416109 13.1944,16.669649 13.1944,15.848582 C13.1944,14.604482 14.21528,13.63411 15.85872,13.63411 C16.630656,13.63411 17.327808,13.833153 17.726256,14.057104 L17.377568,15.326073 C17.078768,15.151912 16.50608,14.927948 15.883648,14.927948 C15.23616,14.927948 14.912528,15.226558 14.912528,15.674408 C14.912528,16.122271 15.23616,16.346222 16.132592,16.64478 C17.402512,17.117551 18.000112,17.764444 18.000112,18.809462 C18.000112,20.078431 17.004048,20.999065 15.136624,20.999065 C14.289984,20.999065 13.518048,20.79997 12.995136,20.501425 L13.343808,19.182718 Z"/>
        <polygon fill="#000" fill-opacity=".15" points="18 7 24 7 24 14"/>
    </g>
</svg>
