<svg xmlns="http://www.w3.org/2000/svg" width="32" height="32" viewBox="0 0 32 32">
    <g fill="none" fill-rule="evenodd" transform="translate(4 1)">
        <path fill="#78909C"
              d="M2.999995,-3.5e-05 C1.349944,-3.5e-05 0.014929,1.349962 0.014929,2.999962 L-0.00011,27.000004 C-0.00011,28.649938 1.334905,29.999968 2.984956,29.999968 L20.999977,29.999968 C22.64992,29.999968 23.999974,28.649938 23.999974,27.000004 L23.999974,6.999958 L16.999954,-3.5e-05 L2.999995,-3.5e-05 Z"/>
        <path fill="#FFF"
              d="M6,10 L10,10 L10,12 L6,12 L6,10 Z M6,14 L14,14 L14,16 L6,16 L6,14 Z M6,18 L18,18 L18,20 L6,20 L6,18 Z M12,10 L18,10 L18,12 L12,12 L12,10 Z M16,14 L18,14 L18,16 L16,16 L16,14 Z M6,22 L12,22 L12,24 L6,24 L6,22 Z M14,22 L18,22 L18,24 L14,24 L14,22 Z"/>
        <polygon fill="#000" fill-opacity=".15" points="18 7 24 7 24 14"/>
        <path fill="#B0BEC5"
              d="M18.99997,6.99997 C17.89538,6.99997 16.99996,6.10453 16.99996,4.99997 L16.99996,-5e-05 L23.99996,6.99997 L18.99997,6.99997 Z"/>
    </g>
</svg>
