<svg xmlns="http://www.w3.org/2000/svg" width="32" height="32" viewBox="0 0 32 32">
    <g fill="none" fill-rule="evenodd" transform="translate(4 1)">
        <path fill="#4CAF50"
              d="M2.999968,-3.5e-05 C1.349944,-3.5e-05 0.014929,1.349962 0.014929,2.999962 L-0.00011,27.000004 C-0.00011,28.649938 1.334905,29.999968 2.984956,29.999968 L20.999977,29.999968 C22.64992,29.999968 23.999947,28.649938 23.999947,27.000004 L23.999947,6.999958 L16.999954,-3.5e-05 L2.999968,-3.5e-05 Z"/>
        <path fill="#FFF"
              d="M7.49992,10.3999747 L8.9999,7.999998 L10.99991,7.999998 L8.499925,11.9999885 L10.99991,15.999979 L8.9999,15.999979 L7.49992,13.6000023 L5.99994,15.999979 L3.99993,15.999979 L6.499915,11.9999885 L3.99993,7.999998 L5.99994,7.999998 L7.49992,10.3999747 Z"/>
        <path fill="#FFF"
              d="M15.000009,13.000005 L18.999984,13.000005 L19.999992,13.000005 L19.999992,25.999995 L18.999984,25.999995 L18.999984,16.999995 L15.000009,16.999995 L15.000009,18.999945 L18.999965,18.999945 L18.999965,19.99998 L15.000009,19.99998 L15.000009,21.999975 L18.999965,21.999975 L18.999965,22.999995 L15.000009,22.999995 L15.000009,24.99999 L18.999965,24.99999 L18.999965,25.999965 L4.999986,25.999965 L3.99994,25.999965 L3.99994,19.99998 L3.99994,18.999945 L14.000001,18.999945 L14.000001,13.000005 L15.000009,13.000005 Z M15.000009,13.999995 L15.000009,16.000005 L18.999984,16.000005 L18.999984,13.999995 L15.000009,13.999995 Z M9.99995,19.99998 L9.99995,21.999975 L14.000001,21.999975 L14.000001,19.99998 L9.99995,19.99998 Z M8.999904,19.99998 L4.999986,19.99998 L4.999986,21.999975 L8.999904,21.999975 L8.999904,19.99998 Z M9.99995,22.999995 L9.99995,24.99999 L14.000001,24.99999 L14.000001,22.999995 L9.99995,22.999995 Z M8.999904,22.999995 L4.999986,22.999995 L4.999986,24.99999 L8.999904,24.99999 L8.999904,22.999995 Z"/>
        <path fill="#81C784"
              d="M18.99997,6.99997 C17.89537,6.99997 16.99996,6.10453 16.99996,4.99997 L16.99996,-5e-05 L23.99996,6.99997 L18.99997,6.99997 Z"/>
        <polygon fill="#000" fill-opacity=".15" points="18 7 24 7 24 14"/>
    </g>
</svg>
