<svg xmlns="http://www.w3.org/2000/svg" width="32" height="32" viewBox="0 0 32 32">
    <g fill="none" fill-rule="evenodd" transform="translate(4 1)">
        <path fill="#FF9800"
              d="M2.999914,-3.5e-05 C1.349944,-3.5e-05 0.014929,1.349962 0.014929,2.999962 L-8.29999999e-05,27.000004 C-8.29999999e-05,28.649938 1.334932,29.999968 2.984983,29.999968 L20.999896,29.999968 C22.649947,29.999968 23.999974,28.649938 23.999974,27.000004 L23.999974,6.999958 L16.999981,-3.5e-05 L2.999914,-3.5e-05 Z"/>
        <path fill="#FFB74D"
              d="M18.99989,6.99997 C17.8954,6.99997 16.99998,6.10453 16.99998,4.99997 L16.99998,-5e-05 L23.99998,6.99997 L18.99989,6.99997 Z"/>
        <polygon fill="#000" fill-opacity=".15" points="18 7 24 7 24 14"/>
        <path fill="#FFF"
              d="M11.99989,9.999997 L13.99992,9.999997 L13.99992,11.999982 L10.99993,11.999982 L10.99993,9.999997 L8.99992,9.999997 L8.99992,7.999983 L10.99993,7.999983 L10.99993,5.99994 L8.99992,5.99994 L8.99992,3.999955 L10.99993,3.999955 L10.99993,1.999941 L8.99992,1.999941 L8.99992,-4.4e-05 L11.99989,-4.4e-05 L11.99989,1.999941 L13.99992,1.999941 L13.99992,3.999955 L11.99989,3.999955 L11.99989,5.99994 L13.99992,5.99994 L13.99992,7.999983 L11.99989,7.999983 L11.99989,9.999997 Z M9.99998,17.999966 L9.99998,19.499962 C9.99998,20.328405 10.67149,20.999958 11.49991,20.999958 C12.32835,20.999958 12.99996,20.328405 12.99996,19.499962 L12.99996,17.999966 C12.99996,17.999966 14.99997,22.093693 14.99997,23.499961 C14.99997,24.9062 13.88065,25.999964 12.49996,25.999964 L10.49995,25.999964 C9.11919,25.999964 7.99997,24.843734 7.99997,23.499961 C7.99997,22.1562271 9.99994989,18.0000286 9.99998,17.999966 Z M12.99996,17.9146141 L12.99996,16.499999 C12.99996,15.671556 12.32835,14.999945 11.49991,14.999945 C10.67149,14.999945 9.99998,15.671556 9.99998,16.499999 L9.99998,17.9146219 C9.41736586,17.7087104 8.99992,17.1530852 8.99992,16.499999 L8.99992,14.499985 C8.99992,13.671542 9.67154,12.99996 10.49995,12.99996 L12.49996,12.99996 C13.32841,12.99996 13.99992,13.671542 13.99992,14.499985 L13.99992,16.499999 C13.99992,17.1530769 13.5825532,17.7086962 12.99996,17.9146141 Z M11.49991,21.999965 C10.67149,21.999965 9.99998,22.671576 9.99998,23.499961 C9.99998,24.328404 10.67149,24.999986 11.49991,24.999986 C12.32835,24.999986 12.99996,24.328404 12.99996,23.499961 C12.99996,22.671576 12.32835,21.999965 11.49991,21.999965 Z M11.49991,15.999981 C11.77608,15.999981 11.99989,16.223832 11.99989,16.499999 L11.99989,19.499962 C11.99989,19.776129 11.77608,19.99998 11.49991,19.99998 C11.22383,19.99998 10.99993,19.776129 10.99993,19.499962 L10.99993,16.499999 C10.99993,16.223832 11.22383,15.999981 11.49991,15.999981 Z"/>
    </g>
</svg>
